<svg width="25" height="25" viewBox="0 0 25 25" fill="none" xmlns="http://www.w3.org/2000/svg">
<path d="M12.9492 9.35333C11.3232 9.35333 9.94922 10.7273 9.94922 12.3533C9.94922 13.9793 11.3232 15.3533 12.9492 15.3533C14.5752 15.3533 15.9492 13.9793 15.9492 12.3533C15.9492 10.7273 14.5752 9.35333 12.9492 9.35333Z" fill="white"/>
<path d="M20.9492 5.35333H18.3632L15.6562 2.64633C15.5635 2.55329 15.4533 2.4795 15.332 2.42922C15.2106 2.37893 15.0806 2.35314 14.9492 2.35333H10.9492C10.8179 2.35314 10.6878 2.37893 10.5665 2.42922C10.4451 2.4795 10.3349 2.55329 10.2422 2.64633L7.53522 5.35333H4.94922C3.84622 5.35333 2.94922 6.25033 2.94922 7.35333V18.3533C2.94922 19.4563 3.84622 20.3533 4.94922 20.3533H20.9492C22.0522 20.3533 22.9492 19.4563 22.9492 18.3533V7.35333C22.9492 6.25033 22.0522 5.35333 20.9492 5.35333ZM12.9492 17.3533C10.2392 17.3533 7.94922 15.0633 7.94922 12.3533C7.94922 9.64333 10.2392 7.35333 12.9492 7.35333C15.6592 7.35333 17.9492 9.64333 17.9492 12.3533C17.9492 15.0633 15.6592 17.3533 12.9492 17.3533Z" fill="white"/>
</svg>
